<?xml version="1.0" encoding="utf-8"?>
<!-- Generator: Adobe Illustrator 27.8.1, SVG Export Plug-In . SVG Version: 6.00 Build 0)  -->
<svg version="1.1" id="レイヤー_1" xmlns="http://www.w3.org/2000/svg" xmlns:xlink="http://www.w3.org/1999/xlink" x="0px"
	 y="0px" viewBox="0 0 283.46 283.46" style="enable-background:new 0 0 283.46 283.46;" xml:space="preserve">
<style type="text/css">
	.st0{display:none;}
	.st1{stroke:#FFFFFF;stroke-miterlimit:10;}
	.st2{fill:#060404;stroke:#000000;stroke-miterlimit:10;}
</style>
<path class="st0" d="M253.41,230.52c-74.42,0-148.84,0-223.27,0c0-59.12,0-118.23,0-177.35c74.33,0,148.67,0,223.27,0
	C253.41,112.65,253.41,171.58,253.41,230.52z M41.65,148.2c2.08,3.25,3.39,5.77,5.13,7.95c8.08,10.14,18.52,17.41,29.47,24.08
	c22.64,13.79,46.86,23.91,72.35,30.95c16.45,4.54,33.17,7.84,50.42,6.23c13.67-1.27,23.55-7.4,28.41-20.98
	c5.02-14.05,8.38-28.45,9.28-43.25c1.14-18.68-0.16-37.21-6.9-55c-6.37-16.8-17.33-29.31-34.5-35.25
	c-10.59-3.67-21.65-4.26-32.97-2.8c-16.72,2.15-32.79,6.48-48.36,12.67c-19.42,7.72-36.82,18.83-51.41,33.77
	c-8.83,9.04-16.55,19.16-24.78,28.79c3.82,0.41,6.92-0.06,10.04-0.2c15.96-0.71,30.95,3.82,45.32,9.85
	c15.26,6.41,29.97,14.15,45.54,21.61c-0.91-3.64-1.35-7.77-2.96-11.37c-6.61-14.78-19.11-23.43-33.01-30.36
	c-6.08-3.03-12.47-5.45-18.86-8.21c15.8-14.78,46.3-27.08,58.52-23.56c-8.9,9.04-18.49,16.59-31.78,20
	c1.15-4.63,3.94-6.06,6.95-6.93c0.92-0.27,2.2,0.73,3.84,1.35c0.18-1.05,0.92-2.6,0.44-3.51c-0.37-0.7-2.36-1.01-3.47-0.77
	c-5.62,1.22-9.95,4.52-12.93,9.34c-0.74,1.19-0.88,3.4-0.25,4.58c0.48,0.89,2.8,1.51,4,1.17c5.26-1.48,10.71-2.77,15.55-5.2
	c9.39-4.71,17.94-10.75,25.04-18.68c0.87-0.97,2.94-1.51,4.32-1.31c11.08,1.58,20.93,6.12,28.87,13.97
	c6.4,6.33,11.2,13.75,11.46,23.27c0.24,9.07-1.66,17.73-5.21,25.99c-2.63,6.12-6.35,11.65-11.66,15.79
	c-12.65,9.87-27.46,14.27-43.12,16.2c-1.59,0.2-3.51,0.01-4.88-0.73c-11.82-6.39-23.62-12.83-35.26-19.54
	c-2.58-1.49-4.51-4.09-6.74-6.18c7.6,0.49,13.25,4.6,12.93,8.6c1.62,0,3.22,0,4.96,0c-3.26-7.95-22.31-16.75-28.93-13.22
	c5.09,7.94,12.7,12.92,20.33,17.77c7.76,4.93,15.75,9.5,23.74,14.28c-15.42-0.71-29.39-5.78-41.92-14.14
	C66.28,166.99,54.6,157.74,41.65,148.2z M143.72,108.05c2.67,1.44,4.99,2.73,7.35,3.95c1.71,0.89,3.56,2.55,5.2,2.38
	c7.81-0.79,15.57-2.1,23.53-3.25C168.35,101.24,156.09,106.23,143.72,108.05z M168.99,117.5c1.91,7.91,5.44,9.43,17.96,8.6
	c-0.23-1.27-0.95-2.69-0.6-3.77c1.43-4.43-1.78-4.59-4.41-4.76C177.78,117.3,173.58,117.5,168.99,117.5z M182.85,131.46
	c0.08,8.71,0.08,8.71,7.16,11.01C193.17,134.5,193.17,134.5,182.85,131.46z M181.91,158.54c0.79-0.89,1.58-1.88,2.48-2.76
	c1.02-1,2.35-1.75,3.17-2.88c0.56-0.77,0.98-2.44,0.56-2.96c-1-1.21-2.48-2.63-3.89-2.77c-2.25-0.23-5.22,5.91-4.12,7.97
	C180.7,156.29,181.31,157.42,181.91,158.54z M178.4,167.8c2.48-4.36,1.63-5.93-3.56-6.97C172.18,165.45,172.61,166.34,178.4,167.8z"
	/>
<path class="st1" d="M41.21,150.69c12.96,9.53,24.63,18.78,36.99,27.03c12.53,8.36,26.51,13.43,41.92,14.14
	c-7.99-4.78-15.98-9.35-23.74-14.28c-7.63-4.85-15.24-9.83-20.33-17.77c6.62-3.53,25.66,5.27,28.93,13.22c-1.74,0-3.33,0-4.96,0
	c0.32-4-5.33-8.11-12.93-8.6c2.23,2.09,4.16,4.7,6.74,6.18c11.64,6.71,23.44,13.15,35.26,19.54c1.37,0.74,3.29,0.92,4.88,0.73
	c15.67-1.93,30.47-6.33,43.12-16.2c5.31-4.14,9.03-9.67,11.66-15.79c3.55-8.26,5.46-16.92,5.21-25.99
	c-0.26-9.52-5.06-16.94-11.46-23.27c-7.95-7.86-17.79-12.39-28.87-13.97c-1.38-0.2-3.44,0.33-4.32,1.31
	c-7.1,7.93-15.65,13.97-25.04,18.68c-4.84,2.43-10.29,3.72-15.55,5.2c-1.2,0.34-3.52-0.28-4-1.17c-0.63-1.18-0.49-3.39,0.25-4.58
	c2.99-4.82,7.31-8.12,12.93-9.34c1.11-0.24,3.11,0.07,3.47,0.77c0.48,0.91-0.26,2.46-0.44,3.51c-1.64-0.62-2.92-1.62-3.84-1.35
	c-3.01,0.87-5.79,2.3-6.95,6.93c13.3-3.41,22.88-10.97,31.78-20c-12.23-3.52-42.72,8.78-58.52,23.56
	c6.39,2.76,12.78,5.18,18.86,8.21c13.9,6.92,26.4,15.57,33.01,30.36c1.61,3.6,2.04,7.73,2.96,11.37
	c-15.57-7.46-30.27-15.2-45.54-21.61c-14.37-6.03-29.36-10.56-45.32-9.85c-3.12,0.14-6.22,0.61-10.04,0.2
	c8.22-9.63,15.95-19.75,24.78-28.79c14.59-14.95,31.99-26.05,51.41-33.77c15.57-6.19,31.64-10.53,48.36-12.67
	c11.32-1.45,22.38-0.86,32.97,2.8c17.17,5.94,28.14,18.45,34.5,35.25c6.74,17.79,8.04,36.32,6.9,55c-0.9,14.8-4.26,29.2-9.28,43.25
	c-4.85,13.57-14.74,19.71-28.41,20.98c-17.25,1.6-33.97-1.69-50.42-6.23c-25.49-7.04-49.71-17.16-72.35-30.95
	c-10.95-6.67-21.39-13.94-29.47-24.08C44.6,156.46,43.29,153.94,41.21,150.69z M218.72,168.29c0.49-0.59,1-1.15,1.45-1.76
	c7.05-9.43,9.06-20.63,9.48-31.79c0.6-16.23-3.45-31.51-13.4-44.86c-11.16-14.97-25.62-22.73-44.62-20.86
	c-1.8,0.18-3.59,0.55-6.16,0.95c23.83,3.91,41.03,15.63,51.92,36.21C228.19,126.62,228.76,147.28,218.72,168.29z M204.79,200.97
	c6.94-2.93,9.32-7.82,7.76-14.97c0.53,0,1.06,0,1.58,0.01c2.1,2.81,4.2,5.62,6.37,8.52c0.34-7.41-3.7-11.45-10.28-13.65
	c0.06-0.38,0.12-0.76,0.17-1.15c2.7-0.32,5.39-0.64,8.16-0.97c-5.68-2.83-11.04-1.29-16.64,1.41c-0.36-4.79,3.19-6.62,5.53-9.18
	c-6.31,2.66-10,7.16-9.54,14.57c-0.5,0.09-1,0.18-1.51,0.27c-1.97-3.1-3.95-6.2-5.96-9.37c-0.69,7.63,3.61,12.13,10.94,14.78
	c-0.22,0.42-0.45,0.85-0.67,1.27c-3.18,0.22-6.35,0.44-10.29,0.71c6.85,2.8,12.73,2.17,18.42-1.49
	C210.82,196.44,207.09,198.11,204.79,200.97z"/>
<path class="st1" d="M143.28,110.54c12.37-1.83,24.63-6.81,36.09,3.09c-7.97,1.15-15.73,2.45-23.53,3.25
	c-1.64,0.17-3.48-1.5-5.2-2.38C148.27,113.27,145.95,111.98,143.28,110.54z"/>
<path class="st1" d="M170.32,119.99c4.59,0,8.79-0.2,12.95,0.07c2.63,0.17,5.84,0.33,4.41,4.76c-0.35,1.08,0.37,2.51,0.6,3.77
	C175.76,129.42,172.23,127.9,170.32,119.99z"/>
<path class="st1" d="M182.41,133.94c10.32,3.05,10.32,3.05,7.16,11.01C182.5,142.66,182.5,142.66,182.41,133.94z"/>
<path class="st2" d="M181.47,161.03c-0.6-1.12-1.21-2.25-1.81-3.39c-1.09-2.06,1.87-8.2,4.12-7.97c1.41,0.14,2.89,1.56,3.89,2.77
	c0.43,0.52,0,2.18-0.56,2.96c-0.82,1.13-2.14,1.88-3.17,2.88C183.05,159.15,182.26,160.14,181.47,161.03z"/>
<path class="st1" d="M177.96,170.29c-5.78-1.46-6.21-2.36-3.56-6.97C179.59,164.36,180.44,165.93,177.96,170.29z"/>
</svg>
